<?xml version="1.0" encoding="UTF-8" standalone="no"?><!DOCTYPE svg PUBLIC "-//W3C//DTD SVG 1.1//EN" "http://www.w3.org/Graphics/SVG/1.1/DTD/svg11.dtd"><svg width="100%" height="100%" viewBox="0 0 800 200" version="1.1" xmlns="http://www.w3.org/2000/svg" xmlns:xlink="http://www.w3.org/1999/xlink" xml:space="preserve" xmlns:serif="http://www.serif.com/" style="fill-rule:evenodd;clip-rule:evenodd;stroke-linecap:round;stroke-linejoin:round;stroke-miterlimit:1.5;"><g><path d="M70.016,15.027l38,0" style="fill:none;stroke:#edcd36;stroke-width:14px;"/><path d="M70.016,157.027l35.75,0" style="fill:none;stroke:#ff8b4d;stroke-width:14px;"/><path d="M139.016,157.027l24.736,0" style="fill:none;stroke:#ff8b4d;stroke-width:14px;"/><path d="M73.016,38.685l71.5,0" style="fill:none;stroke:#2fd67c;stroke-width:14px;"/><path d="M50.016,38.685l-16.5,0" style="fill:none;stroke:#2fd67c;stroke-width:14px;"/><path d="M93.016,133.37l51.5,0" style="fill:none;stroke:#ff4d94;stroke-width:14px;"/><path d="M162.016,180.973l23.972,0" style="fill:none;stroke:#39c74b;stroke-width:14px;"/><path d="M34.043,133.37l31.5,0" style="fill:none;stroke:#ff4d94;stroke-width:14px;"/><path d="M20.016,62.342l30,0" style="fill:none;stroke:#734dff;stroke-width:14px;"/><path d="M128.016,62.342l30,0" style="fill:none;stroke:#734dff;stroke-width:14px;"/><path d="M20.016,109.712l38,0" style="fill:none;stroke:#ff4d4f;stroke-width:14px;"/><path d="M16.043,86l16.945,0" style="fill:none;stroke:#9844e2;stroke-width:14px;"/><path d="M149.266,86l12.75,0" style="fill:none;stroke:#9844e2;stroke-width:14px;"/><path d="M92.266,86l0.75,0" style="fill:none;stroke:#ff4d4f;stroke-width:14px;"/><path d="M140.516,109.712l17.5,0" style="fill:none;stroke:#ff4d4f;stroke-width:14px;"/></g><g><path d="M263.224,131.708c0,1.52 -0.513,2.812 -1.539,3.876c-1.026,1.064 -2.337,1.596 -3.933,1.596c-1.52,0 -2.793,-0.532 -3.819,-1.596c-1.026,-1.064 -1.539,-2.356 -1.539,-3.876l0,-49.362c0,-1.52 0.513,-2.812 1.539,-3.876c1.026,-1.064 2.299,-1.596 3.819,-1.596c1.596,0 2.907,0.532 3.933,1.596c1.026,1.064 1.539,2.356 1.539,3.876l0,49.362Zm-5.472,-62.358c-2.204,0 -3.781,-0.399 -4.731,-1.197c-0.95,-0.798 -1.425,-2.071 -1.425,-3.819l0,-1.824c0,-1.824 0.513,-3.116 1.539,-3.876c1.026,-0.76 2.603,-1.14 4.731,-1.14c2.128,0 3.667,0.399 4.617,1.197c0.95,0.798 1.425,2.071 1.425,3.819l0,1.824c0,1.824 -0.494,3.116 -1.482,3.876c-0.988,0.76 -2.546,1.14 -4.674,1.14Z" style="fill:#444;fill-rule:nonzero;stroke:#505050;stroke-width:1px;stroke-linecap:butt;stroke-miterlimit:2;"/><path d="M347.356,76.418c13.3,0 19.95,8.284 19.95,24.852l0,30.438c0,1.596 -0.494,2.907 -1.482,3.933c-0.988,1.026 -2.28,1.539 -3.876,1.539c-1.596,0 -2.907,-0.532 -3.933,-1.596c-1.026,-1.064 -1.539,-2.356 -1.539,-3.876l0,-30.324c0,-9.956 -4.18,-14.934 -12.54,-14.934c-2.964,0 -5.643,0.665 -8.037,1.995c-2.394,1.33 -4.256,3.135 -5.586,5.415c-1.33,2.28 -1.995,4.788 -1.995,7.524l0,30.324c0,1.52 -0.513,2.812 -1.539,3.876c-1.026,1.064 -2.337,1.596 -3.933,1.596c-1.596,0 -2.888,-0.513 -3.876,-1.539c-0.988,-1.026 -1.482,-2.337 -1.482,-3.933l0,-30.438c0,-4.484 -0.95,-8.075 -2.85,-10.773c-1.9,-2.698 -5.054,-4.047 -9.462,-4.047c-4.484,0 -8.189,1.425 -11.115,4.275c-2.926,2.85 -4.389,6.365 -4.389,10.545l0,30.438c0,1.52 -0.513,2.812 -1.539,3.876c-1.026,1.064 -2.337,1.596 -3.933,1.596c-1.596,0 -2.888,-0.513 -3.876,-1.539c-0.988,-1.026 -1.482,-2.337 -1.482,-3.933l0,-48.792c0,-1.52 0.513,-2.812 1.539,-3.876c1.026,-1.064 2.299,-1.596 3.819,-1.596c1.596,0 2.907,0.532 3.933,1.596c1.026,1.064 1.539,2.356 1.539,3.876l0,3.99c1.976,-2.964 4.617,-5.453 7.923,-7.467c3.306,-2.014 6.897,-3.021 10.773,-3.021c9.424,0 15.542,4.18 18.354,12.54c1.672,-3.192 4.446,-6.08 8.322,-8.664c3.876,-2.584 7.98,-3.876 12.312,-3.876Z" style="fill:#444;fill-rule:nonzero;stroke:#505050;stroke-width:1px;stroke-linecap:butt;stroke-miterlimit:2;"/><path d="M433.426,76.646c1.596,0 2.907,0.513 3.933,1.539c1.026,1.026 1.539,2.375 1.539,4.047l0,50.16c0,6.156 -1.311,11.305 -3.933,15.447c-2.622,4.142 -6.175,7.201 -10.659,9.177c-4.484,1.976 -9.538,2.964 -15.162,2.964c-3.04,0 -6.593,-0.532 -10.659,-1.596c-4.066,-1.064 -6.669,-2.166 -7.809,-3.306c-2.356,-1.216 -3.534,-2.736 -3.534,-4.56c0,-0.456 0.152,-1.064 0.456,-1.824c0.836,-1.9 2.242,-2.85 4.218,-2.85c0.988,0 2.052,0.228 3.192,0.684c6.08,2.356 10.83,3.534 14.25,3.534c6.08,0 10.735,-1.463 13.965,-4.389c3.23,-2.926 4.845,-6.935 4.845,-12.027l0,-6.156c-1.596,2.964 -4.275,5.51 -8.037,7.638c-3.762,2.128 -7.733,3.192 -11.913,3.192c-5.244,0 -10.032,-1.33 -14.364,-3.99c-4.332,-2.66 -7.733,-6.365 -10.203,-11.115c-2.47,-4.75 -3.705,-10.089 -3.705,-16.017c0,-5.928 1.235,-11.267 3.705,-16.017c2.47,-4.75 5.852,-8.455 10.146,-11.115c4.294,-2.66 9.025,-3.99 14.193,-3.99c4.18,0 8.075,0.95 11.685,2.85c3.61,1.9 6.441,4.218 8.493,6.954l0,-3.648c0,-1.596 0.494,-2.926 1.482,-3.99c0.988,-1.064 2.28,-1.596 3.876,-1.596Zm-24.054,51.642c3.724,0 7.03,-0.893 9.918,-2.679c2.888,-1.786 5.149,-4.294 6.783,-7.524c1.634,-3.23 2.451,-6.859 2.451,-10.887c0,-4.028 -0.817,-7.638 -2.451,-10.83c-1.634,-3.192 -3.895,-5.7 -6.783,-7.524c-2.888,-1.824 -6.194,-2.736 -9.918,-2.736c-3.648,0 -6.916,0.912 -9.804,2.736c-2.888,1.824 -5.149,4.351 -6.783,7.581c-1.634,3.23 -2.451,6.821 -2.451,10.773c0,3.952 0.817,7.543 2.451,10.773c1.634,3.23 3.895,5.757 6.783,7.581c2.888,1.824 6.156,2.736 9.804,2.736Z" style="fill:#444;fill-rule:nonzero;stroke:#505050;stroke-width:1px;stroke-linecap:butt;stroke-miterlimit:2;"/><path d="M484.726,76.076c1.976,0 3.686,0.513 5.13,1.539c1.444,1.026 2.166,2.299 2.166,3.819c0,1.824 -0.475,3.211 -1.425,4.161c-0.95,0.95 -2.109,1.425 -3.477,1.425c-0.684,0 -1.71,-0.228 -3.078,-0.684c-1.596,-0.532 -2.85,-0.798 -3.762,-0.798c-2.356,0 -4.655,0.817 -6.897,2.451c-2.242,1.634 -4.066,3.876 -5.472,6.726c-1.406,2.85 -2.109,6.023 -2.109,9.519l0,27.474c0,1.52 -0.513,2.812 -1.539,3.876c-1.026,1.064 -2.337,1.596 -3.933,1.596c-1.596,0 -2.888,-0.513 -3.876,-1.539c-0.988,-1.026 -1.482,-2.337 -1.482,-3.933l0,-48.792c0,-1.52 0.513,-2.812 1.539,-3.876c1.026,-1.064 2.299,-1.596 3.819,-1.596c1.596,0 2.907,0.532 3.933,1.596c1.026,1.064 1.539,2.356 1.539,3.876l0,5.814c1.672,-3.724 4.18,-6.745 7.524,-9.063c3.344,-2.318 7.144,-3.515 11.4,-3.591Z" style="fill:#444;fill-rule:nonzero;stroke:#505050;stroke-width:1px;stroke-linecap:butt;stroke-miterlimit:2;"/><path d="M551.986,105.032c-0.076,1.368 -0.646,2.527 -1.71,3.477c-1.064,0.95 -2.318,1.425 -3.762,1.425l-40.128,0c0.532,5.548 2.641,9.994 6.327,13.338c3.686,3.344 8.189,5.016 13.509,5.016c3.648,0 6.612,-0.532 8.892,-1.596c2.28,-1.064 4.294,-2.432 6.042,-4.104c1.14,-0.684 2.242,-1.026 3.306,-1.026c1.292,0 2.375,0.456 3.249,1.368c0.874,0.912 1.311,1.976 1.311,3.192c0,1.596 -0.76,3.04 -2.28,4.332c-2.204,2.204 -5.13,4.066 -8.778,5.586c-3.648,1.52 -7.372,2.28 -11.172,2.28c-6.156,0 -11.571,-1.292 -16.245,-3.876c-4.674,-2.584 -8.284,-6.194 -10.83,-10.83c-2.546,-4.636 -3.819,-9.88 -3.819,-15.732c0,-6.384 1.311,-11.989 3.933,-16.815c2.622,-4.826 6.08,-8.531 10.374,-11.115c4.294,-2.584 8.911,-3.876 13.851,-3.876c4.864,0 9.424,1.254 13.68,3.762c4.256,2.508 7.676,5.966 10.26,10.374c2.584,4.408 3.914,9.348 3.99,14.82Zm-27.93,-18.924c-4.256,0 -7.942,1.197 -11.058,3.591c-3.116,2.394 -5.168,6.099 -6.156,11.115l33.63,0l0,-0.912c-0.38,-4.028 -2.185,-7.334 -5.415,-9.918c-3.23,-2.584 -6.897,-3.876 -11.001,-3.876Z" style="fill:#444;fill-rule:nonzero;stroke:#505050;stroke-width:1px;stroke-linecap:butt;stroke-miterlimit:2;"/><path d="M613.888,76.646c1.596,0 2.907,0.513 3.933,1.539c1.026,1.026 1.539,2.375 1.539,4.047l0,50.16c0,6.156 -1.311,11.305 -3.933,15.447c-2.622,4.142 -6.175,7.201 -10.659,9.177c-4.484,1.976 -9.538,2.964 -15.162,2.964c-3.04,0 -6.593,-0.532 -10.659,-1.596c-4.066,-1.064 -6.669,-2.166 -7.809,-3.306c-2.356,-1.216 -3.534,-2.736 -3.534,-4.56c0,-0.456 0.152,-1.064 0.456,-1.824c0.836,-1.9 2.242,-2.85 4.218,-2.85c0.988,0 2.052,0.228 3.192,0.684c6.08,2.356 10.83,3.534 14.25,3.534c6.08,0 10.735,-1.463 13.965,-4.389c3.23,-2.926 4.845,-6.935 4.845,-12.027l0,-6.156c-1.596,2.964 -4.275,5.51 -8.037,7.638c-3.762,2.128 -7.733,3.192 -11.913,3.192c-5.244,0 -10.032,-1.33 -14.364,-3.99c-4.332,-2.66 -7.733,-6.365 -10.203,-11.115c-2.47,-4.75 -3.705,-10.089 -3.705,-16.017c0,-5.928 1.235,-11.267 3.705,-16.017c2.47,-4.75 5.852,-8.455 10.146,-11.115c4.294,-2.66 9.025,-3.99 14.193,-3.99c4.18,0 8.075,0.95 11.685,2.85c3.61,1.9 6.441,4.218 8.493,6.954l0,-3.648c0,-1.596 0.494,-2.926 1.482,-3.99c0.988,-1.064 2.28,-1.596 3.876,-1.596Zm-24.054,51.642c3.724,0 7.03,-0.893 9.918,-2.679c2.888,-1.786 5.149,-4.294 6.783,-7.524c1.634,-3.23 2.451,-6.859 2.451,-10.887c0,-4.028 -0.817,-7.638 -2.451,-10.83c-1.634,-3.192 -3.895,-5.7 -6.783,-7.524c-2.888,-1.824 -6.194,-2.736 -9.918,-2.736c-3.648,0 -6.916,0.912 -9.804,2.736c-2.888,1.824 -5.149,4.351 -6.783,7.581c-1.634,3.23 -2.451,6.821 -2.451,10.773c0,3.952 0.817,7.543 2.451,10.773c1.634,3.23 3.895,5.757 6.783,7.581c2.888,1.824 6.156,2.736 9.804,2.736Z" style="fill:#444;fill-rule:nonzero;stroke:#505050;stroke-width:1px;stroke-linecap:butt;stroke-miterlimit:2;"/><path d="M685.594,105.032c-0.076,1.368 -0.646,2.527 -1.71,3.477c-1.064,0.95 -2.318,1.425 -3.762,1.425l-40.128,0c0.532,5.548 2.641,9.994 6.327,13.338c3.686,3.344 8.189,5.016 13.509,5.016c3.648,0 6.612,-0.532 8.892,-1.596c2.28,-1.064 4.294,-2.432 6.042,-4.104c1.14,-0.684 2.242,-1.026 3.306,-1.026c1.292,0 2.375,0.456 3.249,1.368c0.874,0.912 1.311,1.976 1.311,3.192c0,1.596 -0.76,3.04 -2.28,4.332c-2.204,2.204 -5.13,4.066 -8.778,5.586c-3.648,1.52 -7.372,2.28 -11.172,2.28c-6.156,0 -11.571,-1.292 -16.245,-3.876c-4.674,-2.584 -8.284,-6.194 -10.83,-10.83c-2.546,-4.636 -3.819,-9.88 -3.819,-15.732c0,-6.384 1.311,-11.989 3.933,-16.815c2.622,-4.826 6.08,-8.531 10.374,-11.115c4.294,-2.584 8.911,-3.876 13.851,-3.876c4.864,0 9.424,1.254 13.68,3.762c4.256,2.508 7.676,5.966 10.26,10.374c2.584,4.408 3.914,9.348 3.99,14.82Zm-27.93,-18.924c-4.256,0 -7.942,1.197 -11.058,3.591c-3.116,2.394 -5.168,6.099 -6.156,11.115l33.63,0l0,-0.912c-0.38,-4.028 -2.185,-7.334 -5.415,-9.918c-3.23,-2.584 -6.897,-3.876 -11.001,-3.876Z" style="fill:#444;fill-rule:nonzero;stroke:#505050;stroke-width:1px;stroke-linecap:butt;stroke-miterlimit:2;"/><path d="M741.226,128.744c0.836,0.912 1.254,1.976 1.254,3.192c0,1.52 -0.57,2.831 -1.71,3.933c-1.14,1.102 -2.394,1.653 -3.762,1.653c-1.748,0 -3.23,-0.798 -4.446,-2.394l-15.276,-19.266l-15.048,19.266c-0.532,0.76 -1.178,1.33 -1.938,1.71c-0.76,0.38 -1.558,0.57 -2.394,0.57c-1.292,0 -2.489,-0.475 -3.591,-1.425c-1.102,-0.95 -1.653,-2.071 -1.653,-3.363c0,-1.368 0.418,-2.508 1.254,-3.42l17.1,-21.318l-17.556,-22.116c-0.76,-0.988 -1.14,-2.052 -1.14,-3.192c0,-1.52 0.551,-2.812 1.653,-3.876c1.102,-1.064 2.375,-1.596 3.819,-1.596c1.824,0 3.306,0.76 4.446,2.28l15.618,19.722l14.706,-19.608c1.14,-1.596 2.584,-2.394 4.332,-2.394c1.444,0 2.66,0.475 3.648,1.425c0.988,0.95 1.482,2.071 1.482,3.363c0,1.444 -0.418,2.622 -1.254,3.534l-16.872,21.318l17.328,22.002Z" style="fill:#444;fill-rule:nonzero;stroke:#505050;stroke-width:1px;stroke-linecap:butt;stroke-miterlimit:2;"/></g></svg>