<?xml version="1.0" encoding="UTF-8" standalone="no"?><!DOCTYPE svg PUBLIC "-//W3C//DTD SVG 1.1//EN" "http://www.w3.org/Graphics/SVG/1.1/DTD/svg11.dtd"><svg width="100%" height="100%" viewBox="0 0 200 200" version="1.1" xmlns="http://www.w3.org/2000/svg" xmlns:xlink="http://www.w3.org/1999/xlink" xml:space="preserve" xmlns:serif="http://www.serif.com/" style="fill-rule:evenodd;clip-rule:evenodd;stroke-linecap:round;stroke-linejoin:round;stroke-miterlimit:1.5;"><g><path d="M70.016,15.027l38,0" style="fill:none;stroke:#edcd36;stroke-width:14px;"/><path d="M70.016,157.027l35.75,0" style="fill:none;stroke:#ff8b4d;stroke-width:14px;"/><path d="M139.016,157.027l24.736,0" style="fill:none;stroke:#ff8b4d;stroke-width:14px;"/><path d="M73.016,38.685l71.5,0" style="fill:none;stroke:#2fd67c;stroke-width:14px;"/><path d="M50.016,38.685l-16.5,0" style="fill:none;stroke:#2fd67c;stroke-width:14px;"/><path d="M93.016,133.37l51.5,0" style="fill:none;stroke:#ff4d94;stroke-width:14px;"/><path d="M162.016,180.973l23.972,0" style="fill:none;stroke:#39c74b;stroke-width:14px;"/><path d="M34.043,133.37l31.5,0" style="fill:none;stroke:#ff4d94;stroke-width:14px;"/><path d="M20.016,62.342l30,0" style="fill:none;stroke:#734dff;stroke-width:14px;"/><path d="M128.016,62.342l30,0" style="fill:none;stroke:#734dff;stroke-width:14px;"/><path d="M20.016,109.712l38,0" style="fill:none;stroke:#ff4d4f;stroke-width:14px;"/><path d="M16.043,86l16.945,0" style="fill:none;stroke:#9844e2;stroke-width:14px;"/><path d="M149.266,86l12.75,0" style="fill:none;stroke:#9844e2;stroke-width:14px;"/><path d="M92.266,86l0.75,0" style="fill:none;stroke:#ff4d4f;stroke-width:14px;"/><path d="M140.516,109.712l17.5,0" style="fill:none;stroke:#ff4d4f;stroke-width:14px;"/></g></svg>